<svg width="402" height="63" viewBox="0 0 402 63" fill="none" xmlns="http://www.w3.org/2000/svg">
<path d="M42.0764 39.8076C42.0764 42.706 41.4138 44.9419 40.2545 46.5154C37.5216 49.9935 32.8013 52.9748 26.0107 55.4592C22.9466 56.6186 17.3153 58.2748 9.19967 60.5108C6.05279 61.3389 4.14809 61.7529 3.65122 61.7529C3.15434 61.7529 2.65746 61.5045 2.16059 61.0904C1.49808 60.5936 1.16683 60.0139 1.16683 59.2686C1.16683 57.7779 1.74652 56.867 3.07153 56.4529L6.96373 55.4592C6.96373 54.9623 6.96373 50.0763 7.04654 40.8841C7.04654 31.7747 7.04654 25.9778 7.04654 23.4106C7.04654 19.9325 7.12935 14.384 7.37779 6.59963L2.98871 7.01369C1.00121 7.01369 0.00745486 6.18556 0.00745486 4.4465C0.00745486 3.36993 0.255893 2.70743 0.75277 2.37617C1.16683 2.04493 1.99496 1.8793 3.31997 1.71368C13.5059 0.885544 20.2966 0.47148 23.6091 0.47148C27.2529 0.47148 30.3169 1.13398 32.7185 2.37617C35.7826 4.03243 37.356 6.68244 37.356 10.1606C37.356 15.4606 30.6482 21.7544 17.3153 29.2075C24.2716 29.5388 29.2404 30.1185 32.3044 30.8638C38.7638 32.6028 42.0764 35.5841 42.0764 39.8076ZM31.8904 10.4918C31.8904 7.34494 28.9091 5.7715 22.9466 5.7715C19.1372 5.7715 15.6591 5.93713 12.5122 6.10275C12.3466 9.91214 12.2637 13.4731 12.2637 16.7028V26.0606C25.3482 19.5184 31.8904 14.3012 31.8904 10.4918ZM36.8591 41.0497C36.8591 37.7372 33.5466 35.7497 27.0872 35.0872L12.0153 33.7622V54.0514C28.5779 49.8279 36.8591 45.5216 36.8591 41.0497ZM79.6604 28.3794C79.6604 29.2903 78.7495 30.1185 77.0104 30.8638C75.5198 31.5263 74.4432 31.8575 73.6151 31.8575C73.4495 31.8575 72.9526 31.6919 71.9588 31.3607C64.8369 34.6732 60.5307 41.5466 59.2057 52.1467C58.4603 57.6951 57.5494 60.5108 56.4728 60.5108C55.5619 60.5108 54.8166 59.9311 54.1541 58.9373C53.4916 57.9436 53.1603 57.0326 53.1603 55.8732C53.3259 55.0451 53.6572 53.6373 54.0713 51.567C54.4853 49.0826 54.7338 46.7638 54.7338 44.6107C54.7338 42.2091 54.4025 39.8076 53.9056 37.406C52.9119 36.4122 52.415 35.2529 52.2494 34.0935C51.8353 31.8575 51.6697 30.0356 51.6697 28.7106C51.6697 28.2138 51.8353 27.6341 52.2494 26.9716C52.5806 26.3091 52.9119 25.9778 53.3259 25.9778C55.1478 25.9778 56.39 27.5513 57.0525 30.5325C57.715 33.6794 58.2119 35.9982 58.5432 37.6544C60.5307 33.9278 63.0979 30.781 66.4104 28.2138C69.5573 25.7294 72.787 24.4872 76.0995 24.4872C76.9276 24.4872 77.7557 24.9013 78.5838 25.7294C79.2464 26.5575 79.5776 27.4685 79.6604 28.3794ZM108.034 39.3107C108.034 42.5404 107.62 45.1904 106.792 47.2607C106.544 47.9232 106.212 48.917 105.715 50.242C104.887 52.4779 103.397 54.4654 101.078 56.2873C98.7591 58.1092 96.606 59.1029 94.4528 59.1029C90.9747 59.1029 88.1591 57.6123 86.0059 54.4654C83.9356 51.7326 82.9419 48.5029 82.9419 44.7763C82.9419 41.381 83.77 37.9857 85.4262 34.6732C87.1653 31.1122 89.4013 28.6278 92.2169 27.1372C93.7075 26.3919 94.7841 25.6466 95.4466 24.8184C95.7778 24.7356 96.1919 24.6528 96.606 24.6528C96.7716 24.6528 97.4341 24.8184 98.4279 25.1497C101.243 26.2263 103.562 28.0481 105.384 30.6981C107.123 33.3482 108.034 36.2466 108.034 39.3107ZM103.231 40.5529C103.231 36.6607 102.072 34.0107 99.9185 32.52C98.5935 32.52 97.4341 32.1888 96.606 31.6919C93.7075 31.8575 91.4716 33.3482 89.8153 36.1638C88.4075 38.6482 87.745 41.5466 87.745 44.7763C87.745 47.3435 88.3247 49.4138 89.5669 51.0701C90.8091 52.892 92.3825 53.7201 94.37 53.7201C96.5232 53.7201 98.5107 52.1467 100.498 48.9998C102.32 46.1013 103.231 43.2857 103.231 40.5529ZM168.593 30.6153C168.593 34.1763 168.262 36.3294 167.599 36.9919C166.771 42.5404 165.198 47.5091 162.796 51.981C159.732 57.7779 156.005 60.7592 151.699 60.7592C146.896 60.7592 143.169 55.6248 140.519 45.2732C139.029 48.5857 136.296 52.3123 132.404 56.3701C128.429 60.5108 125.613 62.5811 123.791 62.5811C122.797 62.5811 121.804 61.6701 120.81 60.0139C119.899 58.6889 119.237 57.3639 118.905 55.8732C116.752 47.9232 115.676 41.2154 115.676 35.9154C115.676 32.106 116.007 28.3794 116.752 24.9013C117.083 23.1622 117.994 22.2512 119.319 22.2512C121.39 22.2512 122.466 23.9903 122.466 27.3856C122.466 28.0481 122.135 29.2903 121.638 31.195C121.058 33.0997 120.81 34.5903 120.81 35.6669C120.81 44.8591 122.052 51.8154 124.537 56.6186C127.187 55.2935 129.919 52.8092 132.735 48.9998C135.468 45.1904 137.373 41.2982 138.532 37.3232C139.36 34.1763 140.437 32.52 141.762 32.52C142.838 32.52 143.583 33.6794 143.998 35.9154C145.985 48.8341 148.552 55.2935 151.782 55.2935C153.355 55.2935 155.177 54.0514 157.248 51.4842C159.069 49.1654 160.56 45.7701 161.637 41.2982C162.465 37.406 162.962 33.431 162.962 29.2903C162.962 28.9591 162.879 28.3794 162.713 27.6341C162.548 26.8888 162.548 26.3091 162.548 25.9778C162.548 23.9903 163.376 22.9966 165.198 22.9966C166.357 22.9966 167.268 23.9075 167.765 25.6466C168.262 27.5513 168.593 29.2075 168.593 30.6153ZM197.324 26.8888C197.158 28.545 196.413 29.2903 195.005 29.2903C194.508 29.2903 193.763 29.2903 192.769 29.1247C191.775 29.0419 191.03 28.9591 190.533 28.9591C187.718 28.9591 186.393 30.2013 186.393 32.6028C186.393 33.3482 186.807 35.0044 187.8 37.4888C188.628 39.4763 189.374 41.4638 190.119 43.4513C191.858 48.5029 192.769 52.0638 192.769 54.217C192.769 56.9498 191.61 58.9373 189.291 60.3451C187.303 61.4217 184.736 62.0014 181.589 62.0014C176.455 62.0014 173.888 61.0076 173.888 59.1857C173.888 57.1154 174.55 56.0389 175.958 56.0389C176.289 56.0389 177.117 56.1217 178.608 56.2873C180.016 56.5357 181.092 56.6186 181.838 56.6186C185.813 56.6186 187.8 55.3764 187.8 52.7264C187.8 51.567 186.558 47.5091 184.157 40.7185C183.577 39.2279 182.997 37.6544 182.335 35.9982C181.755 34.4247 181.507 32.9341 181.507 31.4435C181.507 27.7997 183.328 25.3153 187.138 23.9075C187.635 22.5825 189.125 21.92 191.444 21.92C192.355 21.92 193.597 22.1684 195.088 22.5825C195.833 22.8309 196.413 23.6591 196.827 25.1497C196.91 25.5638 197.075 26.1434 197.324 26.8888ZM235.229 56.867C235.229 59.0201 232.662 60.1795 227.693 60.1795C221.234 60.1795 216.597 57.1154 213.781 50.9873C213.118 51.1529 212.29 51.2357 211.462 51.2357C208.564 51.2357 206.245 50.7388 204.589 49.6623C202.518 48.5029 201.525 47.2607 201.525 45.9357C201.525 44.1138 202.353 43.2029 204.009 43.2029C204.257 43.2029 205.086 43.6998 206.493 44.6935C207.901 45.6045 209.309 46.0185 210.717 46.0185C211.214 46.0185 211.793 46.0185 212.29 45.9357C212.042 44.6107 211.959 43.3685 211.959 42.1263C211.959 38.1513 212.953 34.2591 214.94 30.5325C217.176 26.3091 219.992 24.1559 223.387 24.1559C225.457 24.1559 227.528 25.3153 229.681 27.4685C231.172 29.1247 232 31.0294 232 33.1825C232 36.495 230.592 39.6419 227.859 42.7888C225.375 45.6873 222.311 47.9232 218.667 49.4967C220.323 52.9748 222.89 54.7139 226.534 54.7139C227.279 54.7139 228.439 54.631 230.012 54.2998C231.503 54.1342 232.414 54.0514 232.828 54.0514C233.49 54.0514 233.987 54.3826 234.484 54.9623C234.981 55.6248 235.229 56.2045 235.229 56.867ZM227.114 33.5966C227.114 32.6028 226.617 31.6919 225.789 30.8638C224.878 30.1185 223.967 29.7044 223.056 29.7044C221.4 29.7044 219.992 31.0294 218.832 33.5138C217.673 35.9982 217.093 38.6482 217.093 41.2982C217.093 42.2919 217.176 43.4513 217.342 44.6107C219.992 43.4513 222.311 41.8779 224.215 39.8076C226.12 37.9029 227.114 35.8325 227.114 33.5966ZM270.518 28.3794C270.518 29.2903 269.607 30.1185 267.868 30.8638C266.377 31.5263 265.301 31.8575 264.473 31.8575C264.307 31.8575 263.81 31.6919 262.816 31.3607C255.695 34.6732 251.388 41.5466 250.063 52.1467C249.318 57.6951 248.407 60.5108 247.33 60.5108C246.419 60.5108 245.674 59.9311 245.012 58.9373C244.349 57.9436 244.018 57.0326 244.018 55.8732C244.184 55.0451 244.515 53.6373 244.929 51.567C245.343 49.0826 245.591 46.7638 245.591 44.6107C245.591 42.2091 245.26 39.8076 244.763 37.406C243.769 36.4122 243.273 35.2529 243.107 34.0935C242.693 31.8575 242.527 30.0356 242.527 28.7106C242.527 28.2138 242.693 27.6341 243.107 26.9716C243.438 26.3091 243.769 25.9778 244.184 25.9778C246.005 25.9778 247.248 27.5513 247.91 30.5325C248.573 33.6794 249.069 35.9982 249.401 37.6544C251.388 33.9278 253.955 30.781 257.268 28.2138C260.415 25.7294 263.645 24.4872 266.957 24.4872C267.785 24.4872 268.613 24.9013 269.441 25.7294C270.104 26.5575 270.435 27.4685 270.518 28.3794ZM329.036 54.7967C329.036 56.9498 327.793 57.9436 325.475 57.9436C322.576 57.9436 320.423 51.4842 319.098 38.4826C314.792 42.8716 310.817 47.8404 307.339 53.4717C305.848 55.8732 304.44 57.0326 303.198 57.0326C301.873 57.0326 300.714 55.7904 299.637 53.2232C297.815 49.1654 296.904 43.4513 296.821 36.081C293.592 38.2341 290.445 41.1326 287.464 44.6107C283.654 48.917 281.418 52.7264 280.59 56.2045C279.928 59.1029 278.934 60.5936 277.774 60.5936C275.621 60.5936 274.628 58.6061 274.628 54.7967C274.628 52.1467 275.207 48.006 276.367 42.4576C277.692 35.8325 278.437 31.3607 278.437 29.2075C278.437 27.7169 277.94 25.9778 277.029 23.8247C277.195 22.8309 277.774 22.0028 278.768 21.2575C279.514 20.6778 280.259 20.3466 281.087 20.3466C282.992 20.3466 283.985 22.7481 283.985 27.5513C283.985 29.7044 283.571 32.6028 282.826 36.081C282.164 38.9794 281.584 41.7951 281.004 44.6107C291.439 33.6794 297.815 28.131 300.3 28.131C301.542 28.131 302.204 30.0356 302.204 33.6794C302.204 40.9669 302.867 46.267 304.192 49.5795C312.721 37.6544 318.767 31.6091 322.328 31.6091C323.736 31.6091 324.481 33.5966 324.481 37.406C324.481 39.8904 324.729 42.5404 325.309 45.4388C325.972 48.9998 326.8 51.4842 327.959 52.892C328.622 53.8857 329.036 54.4654 329.036 54.7967ZM364.15 38.1513C364.15 38.4826 363.985 38.9794 363.819 39.6419C362.577 43.1201 361.997 46.8466 361.997 50.656C361.997 52.0638 362.08 53.4717 362.411 54.7967C362.908 57.2811 363.239 58.5232 363.239 58.6889C363.239 60.2623 362.328 61.0904 360.589 61.0904C358.933 61.0904 358.022 59.6826 357.774 57.0326C357.608 55.6248 357.359 53.3889 357.028 50.3248C352.474 55.7904 348.084 58.5232 343.861 58.5232C341.625 58.5232 339.72 57.5295 338.147 55.3764C336.573 53.5545 335.828 51.4013 335.828 48.9998C335.828 45.1904 337.484 41.2154 340.963 36.9091C341.625 36.081 342.867 34.756 344.606 33.0997C350.072 28.131 354.627 25.6466 358.436 25.6466C359.264 25.6466 360.175 26.0606 361.086 26.7231C361.914 27.4685 362.411 28.2966 362.411 29.2075C362.411 29.3731 362.328 29.7872 362.163 30.3669C362.825 32.0232 363.156 33.9278 363.156 35.9982C363.819 36.8263 364.15 37.5716 364.15 38.1513ZM358.353 35.8325C358.353 32.9341 357.608 31.4435 356.283 31.4435C355.206 31.4435 353.467 32.3544 351.149 34.0935C348.995 35.6669 347.256 37.2404 345.931 38.8138C342.453 42.706 340.797 46.0185 340.797 48.7513C340.797 51.6498 341.873 53.0576 344.192 53.0576C347.339 53.0576 350.403 51.1529 353.55 47.1779C356.697 43.2029 358.353 39.4763 358.353 35.8325ZM401.941 33.1825C401.941 36.9091 401.609 41.5466 401.112 47.0123C400.781 49.9107 400.45 53.6373 399.953 58.1092C399.787 58.9373 399.456 59.4342 398.794 59.4342C397.883 59.4342 397.055 59.0201 396.392 58.2748C395.73 57.4467 395.398 56.6186 395.398 55.7076C395.481 54.5482 395.647 52.7264 395.978 50.4076L397.386 36.4122C389.519 42.0435 384.053 47.8404 381.072 53.8029C380.575 54.9623 380.161 56.0389 379.664 57.1154C379.084 58.2748 378.67 58.9373 378.339 58.9373C376.683 58.9373 375.606 57.9436 374.944 55.956C373.95 52.9748 373.453 49.1654 373.453 44.3623C373.453 39.3107 374.281 32.52 376.103 23.9903C376.269 23.1622 376.6 22.6653 377.262 22.6653C378.173 22.6653 379.001 23.1622 379.83 23.9903C380.492 24.9013 380.823 25.895 380.823 26.8888C380.658 27.7169 380.409 28.6278 380.161 29.7872C378.836 35.5013 378.256 41.7123 378.256 48.4201C384.798 39.8904 391.423 33.5966 398.214 29.5388C399.208 29.6216 400.036 30.0356 400.781 30.6981C401.527 31.5263 401.941 32.3544 401.941 33.1825Z" fill="black"/>
</svg>
