<svg width="108" height="126" viewBox="0 0 108 126" fill="none" xmlns="http://www.w3.org/2000/svg">
<path d="M75.7619 68.5389C75.6696 69.599 75.6654 70.6725 75.4532 71.7047C75.284 72.5221 74.8134 73.2764 74.5693 74.0835C73.4788 77.7415 71.3341 80.6485 68.5114 83.1798C67.3845 84.1887 66.3172 85.1833 64.8904 85.7009C64.2306 85.9406 63.5393 86.2853 62.8785 86.2579C61.1318 86.1883 59.307 86.515 57.7059 85.3977C57.2595 85.0831 56.6042 85.0921 56.0652 84.9034C53.6705 84.0579 51.6059 82.6993 50.0615 80.6752C49.2392 79.5918 48.5725 78.3831 47.9324 77.1806C47.6739 76.692 47.6295 76.3094 46.9883 76.7711C45.7679 77.6388 44.3757 78.2487 43.4693 79.5477C43.1629 79.9891 42.5595 80.2278 42.0631 80.5196C39.2082 82.1937 36.5814 84.1245 34.3386 86.6083C32.9092 88.1928 31.2254 89.5426 29.6952 91.0474C29.0387 91.6953 29.14 92.0138 29.995 92.1427C30.6869 92.2476 31.4246 92.3069 32.1164 92.2011C33.8807 91.9236 35.6041 91.7911 37.4101 91.9377C39.4437 92.1021 41.5125 91.7832 43.5691 91.7282C44.1844 91.7099 44.8909 91.6918 45.4129 91.9538C46.8547 92.6688 46.9623 94.2881 45.6367 95.2156C44.4636 96.031 43.2422 96.6316 41.7095 96.7593C39.7311 96.9308 37.7732 97.1351 35.7815 97.0928C34.4469 97.063 33.1026 97.347 31.7646 97.5131C29.8487 97.7483 27.9804 97.236 26.334 96.4945C24.2497 95.5527 23.2322 93.5881 23.2142 91.2522C23.2051 90.3862 23.5338 89.5778 24.1652 88.9172C25.7362 87.2673 27.1471 85.4607 29.1163 84.2125C30.0721 83.6063 30.8578 82.7357 31.7083 81.9786C32.0452 81.6778 31.8271 81.5286 31.5284 81.424C27.8584 80.113 25.9292 77.1776 24.4745 73.833C23.9075 72.5281 23.2507 71.2163 22.9596 69.8422C22.4668 67.4941 21.9603 65.1147 22.2891 62.6769C22.4681 61.335 22.375 59.8947 22.8547 58.6789C23.9991 55.7849 24.4534 52.5968 26.4179 50.0412C26.6276 49.774 26.6894 49.388 26.8218 49.0607C27.4421 47.5125 28.3394 46.1622 29.675 45.1317C30.4108 44.5656 31.2254 44.053 31.84 43.3743C33.7498 41.2344 36.1182 41.3785 38.5581 41.9395C39.291 42.1102 39.9892 42.3992 40.7622 42.4878C43.2191 42.7649 44.9169 44.2206 46.1629 46.2595C47.3577 48.2163 48.3468 50.2726 49.028 52.475C49.1085 52.7325 49.346 52.9494 49.5091 53.184C49.6433 52.9694 49.816 52.7708 49.9102 52.547C50.622 50.9077 51.3793 49.3141 52.7296 48.0694C53.2951 47.5409 53.8249 46.9548 54.2676 46.3205C55.8727 44.0113 58.1662 43.1196 60.8634 42.9679C62.3586 42.8806 63.8357 43.1122 65.3153 43.1827C67.1916 43.2684 68.6619 44.1024 70.2972 44.7711C73.374 46.0352 74.8835 48.3602 75.647 51.4456C76.4584 54.7177 76.6452 58.0481 76.6064 61.3821C76.5791 63.7918 76.2797 66.1942 76.0981 68.6031C75.9884 68.5916 75.8771 68.5868 75.7741 68.5768L75.7619 68.5389ZM62.7896 76.8963C61.0072 76.4672 59.563 75.6113 58.7496 73.947C57.9003 72.2252 57.1152 70.4692 56.3762 68.6959C56.1966 68.2608 56.1624 67.6839 56.2694 67.2242C56.9435 64.3893 57.8137 61.6772 61.1493 60.8947C61.2899 60.8642 61.4304 60.8337 61.5623 60.7801C63.5518 59.8668 65.6696 59.6996 67.8124 59.8474C68.4968 59.8943 69.1775 60.2284 69.8209 60.5117C70.389 60.7563 71.028 61.481 71.4174 61.3469C72.2342 61.0665 71.9426 60.1769 71.8384 59.4784C71.8085 59.2748 71.9228 59.0556 71.9376 58.8413C72.0565 56.762 71.7097 54.7218 71.0675 52.7743C69.881 49.1831 66.7719 47.8763 63.5322 46.7989C63.337 46.7324 63.1052 46.7627 62.898 46.7777C61.7032 46.8718 60.5032 47.0489 59.307 47.0583C58.6533 47.0606 58.3572 47.2164 57.9884 47.8048C57.1249 49.191 56.2593 50.5557 55.5049 52.0164C53.6789 55.5454 52.5883 59.2947 51.8563 63.1627C51.7143 63.9233 51.7056 64.7149 51.6318 65.4843C51.3918 67.8725 52.1785 70.1345 52.538 72.4516C52.7106 73.5804 53.1803 74.6098 53.6884 75.6552C55.4394 79.2655 58.5792 80.3196 62.2089 80.4764C62.7933 80.5001 63.4779 80.1538 63.9831 79.7938C64.7918 79.2166 65.4884 78.4868 66.2208 77.8145C66.3631 77.6861 66.4429 77.494 66.5514 77.3296C66.3624 77.2365 66.1807 77.0818 65.9864 77.0717C64.9232 76.9927 63.859 76.9486 62.7978 76.8912L62.7896 76.8963ZM27.8513 55.6494C27.1476 57.8875 26.9297 60.5126 27.0389 63.1507C27.0899 64.3495 27.3895 65.536 27.4754 66.7359C27.6669 69.2316 28.3177 71.5041 30.2035 73.2986C30.554 73.6331 30.7299 74.1446 30.9742 74.5737C31.6711 75.8035 33.7491 76.8632 35.1061 76.6454C36.2298 76.4646 37.3423 76.2109 38.4763 76.0465C39.3255 75.9282 39.9404 75.5797 40.3173 74.7755C40.5258 74.3324 40.8864 73.9598 41.1718 73.5487C41.2432 73.453 41.3293 73.2342 41.3109 73.2229C41.1383 73.1195 40.9468 72.9766 40.7576 72.9747C40.4772 72.9726 40.2037 73.0915 39.919 73.1376C37.4476 73.4963 35.429 72.5136 33.8343 70.7658C32.6146 69.4283 31.9832 67.7362 31.7345 65.9084C31.5484 64.5658 31.8352 63.4246 32.5547 62.2647C34.4875 59.182 39.2129 56.1104 43.138 57.5018C44.65 58.0365 44.9582 57.7079 45.0778 56.0783C45.0999 55.8025 45.0338 55.5132 45.0077 55.2332C44.7596 52.8297 43.6905 50.7547 42.3629 48.7951C41.4381 47.428 40.2466 46.6028 38.5671 46.275C37.4452 46.0559 36.4569 46.5 35.3962 46.4708C34.0699 46.4359 32.9975 47.1203 32.3883 48.2286C32.0096 48.92 31.5049 49.3082 30.914 49.7044C29.4909 50.6583 28.4601 51.8581 28.3002 53.661C28.2529 54.2259 28.0529 54.7833 27.8513 55.6494Z" fill="#080808"/>
<path d="M64.3432 114.206C59.3756 113.751 55.8149 111.376 52.9853 107.725C52.5076 107.11 51.9158 106.585 51.3452 106.055C50.7747 105.526 50.7558 104.876 51.0197 104.281C51.2904 103.686 51.8134 103.287 52.5491 103.299C53.6148 103.316 54.4991 103.814 55.2545 104.469C57.1439 106.127 59.2502 107.412 61.5676 108.37C63.379 109.124 65.307 109.478 67.1997 109.146C69.2611 108.786 70.2352 103.671 71.0395 101.838C71.5221 100.738 71.8217 99.5543 72.369 98.4898C72.6736 97.8993 73.24 97.3676 73.814 97.0021C74.6113 96.4979 75.5586 96.8727 75.8659 97.8187C76.1482 98.6859 76.402 99.6186 76.357 100.516C76.1433 104.789 74.1436 111.456 70.5073 113.467C68.5898 114.527 66.3206 114.896 64.3357 114.212L64.3432 114.206Z" fill="#080808"/>
<mask id="path-3-inside-1_33_1546" fill="white">
<rect x="0.676514" y="0.750732" width="107.196" height="124.615" rx="0.926502"/>
</mask>
<rect x="0.676514" y="0.750732" width="107.196" height="124.615" rx="0.926502" stroke="black" stroke-width="6.84834" mask="url(#path-3-inside-1_33_1546)"/>
<path d="M3.36353 27.3412C4.35604 27.3412 5.34856 27.3412 6.34108 27.3412C15.0392 27.3412 32.5947 26.0441 54.4601 30.6303C73.4534 34.0584 105.788 25.6272 105.788 25.6272" stroke="black" stroke-width="3.70601" stroke-linecap="round"/>
<path d="M12.3902 12.2308C12.7057 12.2308 11.6139 12.1384 11.4619 12.4149C10.8247 13.5734 11.2416 15.7382 11.918 16.7447C12.5725 17.7183 14.0758 18.7276 15.3195 18.2493C16.1673 17.9232 16.4276 16.1014 16.608 15.4401C16.9503 14.1849 17.449 12.8015 16.3919 11.7986C15.7682 11.2069 14.8797 10.4557 13.9829 10.366C13.0099 10.2687 13.1105 11.2577 13.1105 11.9667C13.1105 12.6142 12.8808 13.9728 13.4307 14.5038C13.9602 15.015 15.3907 14.6793 15.8477 14.2476C16.4438 13.6846 16.8463 12.931 16.688 12.0867C16.4627 10.8849 14.379 10.7055 13.4227 10.8062C11.3173 11.0278 11.8509 14.6101 13.1426 15.5122C15.7184 17.3112 16.7621 13.4102 15.6876 11.6065C15.0858 10.5964 14.2618 10.1018 13.1105 9.95786C12.4877 9.88001 11.2168 12.3403 11.2168 13.1194" stroke="black" stroke-width="3.70601" stroke-linecap="round"/>
<path d="M28.6148 16.6483C28.5143 16.3467 28.8008 17.411 29.0333 17.4951M29.0333 17.4951C30.0077 17.8471 31.3162 16.9681 31.7707 16.098C32.2104 15.2562 32.4033 13.5949 31.6885 12.512C31.2012 11.7738 29.9052 11.9292 29.4075 11.9035C28.4626 11.8548 27.3826 11.6851 27.0518 12.9183C26.8566 13.6459 26.6396 14.6621 26.8657 15.5394C27.111 16.4913 27.7374 16.1756 28.2094 16.0182C28.6406 15.8745 29.6184 15.7927 29.7966 15.1491C29.9683 14.5294 29.2888 13.2363 28.8558 12.8951C28.2909 12.4501 27.6609 12.2325 27.1493 12.5712C26.4209 13.0534 26.9655 15.0854 27.3373 15.9774C28.1559 17.9411 30.3709 16.6359 30.5598 15.2008C30.9367 12.3388 28.0068 12.2067 27.1484 13.6343C26.6676 14.4338 26.6009 15.3314 26.872 16.4641C27.0186 17.0768 28.5146 17.668 29.0333 17.4951Z" stroke="black" stroke-width="3.70601" stroke-linecap="round"/>
<path d="M45.9678 15.8283C45.7044 15.9294 46.6392 15.6399 46.6965 15.4101C46.937 14.4468 46.0443 13.1621 45.2264 12.7195C44.4351 12.2914 42.9261 12.1121 42.0082 12.8242C41.3825 13.3096 41.6234 14.5867 41.6392 15.0777C41.6692 16.0099 41.601 17.0761 42.7358 17.3943C43.4053 17.582 44.3361 17.7893 45.1073 17.5606C45.9442 17.3124 45.6113 16.6968 45.4329 16.2322C45.27 15.808 45.12 14.8442 44.5274 14.6726C43.9566 14.5074 42.8469 15.186 42.574 15.6153C42.218 16.1753 42.0715 16.798 42.4161 17.3004C42.9066 18.0156 44.6912 17.4652 45.4643 17.0926C47.1662 16.2725 45.8195 14.0965 44.5142 13.9196C41.9112 13.5667 42.0213 16.4571 43.3721 17.2943C44.1286 17.7632 44.941 17.8232 45.9383 17.5484C46.4778 17.3997 46.921 15.3903 46.725 14.8798" stroke="black" stroke-width="3.70601" stroke-linecap="round"/>
</svg>
